<svg fill="none" height="100%" width="100%" viewBox="0 0 1000 1000" xmlns:xlink="http://www.w3.org/1999/xlink" xmlns="http://www.w3.org/2000/svg"><g transform="matrix(0.83,0,0,0.83,2.057,26.987)" id="i0"><g id="i1" transform="matrix(1,0,0,1,655.005,614.237)"><path fill="#eef8ff" d="M-164.114,-536.141C-219.653,-519.029,-269.867,-440.473,-273.101,-369.18C-276.299,-298.66,-231.303,-284.373,-225.408,-209.28C-219.175,-129.882,-264.719,-85.208,-297.757,-3.278C-347.199,119.33,-366.109,319.108,-280.381,426.328C-180.785,550.893,45.461,532.296,113.978,424.615C176.183,326.854,71.052,214.332,140.88,74.349C198.876,-41.914,302.667,-26.978,340.696,-142.095C366.109,-219.021,350.387,-318.394,303.58,-375.651C231.714,-463.561,143.664,-382.352,-19.035,-471.694C-91.67,-511.58,-116.236,-550.893,-164.114,-536.141Z" /></g></g><g id="i2"><g transform="translate(477.232,513.782)"><animateTransform repeatCount="indefinite" type="translate" attributeName="transform" dur="2.567s" begin="0s" calcMode="spline" values="477.232 513.782; 477.232 513.782; 477.232 506.782; 477.232 513.782; 477.232 506.782; 477.232 513.782; 477.232 513.782" keyTimes="0; 0.142597; 0.186922; 0.268156; 0.334611; 0.423231; 1" keySplines="0 0 1 1; 0 0 1 1; 0 0 1 1; 0 0 1 1; 0 0 1 1; 0 0 1 1" fill="freeze" /><g transform="scale(0.83,0.83) translate(-572.5,-586.5)"><g id="i1" transform="matrix(1,0,0,1,559.529,428.725)"><path d="M132.53,-11.826C138.896,6.58,159.305,87.824,161.147,106.417C163.196,127.087,126.691,131.893,106.529,126.902C70.292,117.933,50.889,113.17,-0.019,112.697C-0.019,112.697,-155.983,138.434,-47.61,-79.325C-37.274,-100.093,-17.374,-144.415,-1.019,-144.415C-1.019,-144.415,23.696,-102.197,23.696,-102.197C23.696,-102.197,71.999,-130.707,71.999,-130.707C90.521,-143.455,108.833,-143.035,125.265,-134.421" stroke-miterlimit="10" stroke-linecap="round" stroke-width="5" stroke="#000000" fill="#326690"><animate repeatCount="indefinite" attributeName="d" dur="2.567s" begin="0s" calcMode="spline" values="M132.53,-11.826C138.896,6.58,159.305,87.824,161.147,106.417C163.196,127.087,126.691,131.893,106.529,126.902C70.292,117.933,50.889,113.17,-0.019,112.697C-0.019,112.697,-155.983,138.434,-47.61,-79.325C-37.274,-100.093,-17.374,-144.415,-1.019,-144.415C-1.019,-144.415,23.696,-102.197,23.696,-102.197C23.696,-102.197,71.999,-130.707,71.999,-130.707C90.521,-143.455,108.833,-143.035,125.265,-134.421; M132.53,-11.826C138.896,6.58,159.305,87.824,161.147,106.417C163.196,127.087,126.691,131.893,106.529,126.902C70.292,117.933,50.889,113.17,-0.019,112.697C-0.019,112.697,-155.983,138.434,-47.61,-79.325C-37.274,-100.093,-17.374,-144.415,-1.019,-144.415C-1.019,-144.415,23.696,-102.197,23.696,-102.197C23.696,-102.197,71.999,-130.707,71.999,-130.707C90.521,-143.455,108.833,-143.035,125.265,-134.421; M132.53,-11.826C138.896,6.58,159.305,87.824,161.147,106.417C163.196,127.087,126.691,131.893,106.529,126.902C70.292,117.933,50.889,113.17,-0.019,112.697C-0.019,112.697,-180.063,125.137,-75.32,-116.675C-66.099,-137.961,-17.374,-144.415,-1.019,-144.415C-1.019,-144.415,23.696,-102.197,23.696,-102.197C23.696,-102.197,71.999,-130.707,71.999,-130.707C90.521,-143.455,108.833,-143.035,125.265,-134.421; M132.53,-11.826C138.896,6.58,159.305,87.824,161.147,106.417C163.196,127.087,126.691,131.893,106.529,126.902C70.292,117.933,50.889,113.17,-0.019,112.697C-0.019,112.697,-155.983,128.795,-47.61,-88.964C-37.274,-109.732,-17.374,-144.415,-1.019,-144.415C-1.019,-144.415,23.696,-102.197,23.696,-102.197C23.696,-102.197,71.999,-130.707,71.999,-130.707C90.521,-143.455,108.833,-143.035,125.265,-134.421; M132.53,-11.826C138.896,6.58,159.305,87.824,161.147,106.417C163.196,127.087,126.691,131.893,106.529,126.902C70.292,117.933,50.889,113.17,-0.019,112.697C-0.019,112.697,-171.645,111.928,-63.272,-105.831C-52.936,-126.599,-17.374,-144.415,-1.019,-144.415C-1.019,-144.415,23.696,-102.197,23.696,-102.197C23.696,-102.197,71.999,-130.707,71.999,-130.707C90.521,-143.455,108.833,-143.035,125.265,-134.421; M132.53,-11.826C138.896,6.58,159.305,87.824,161.147,106.417C163.196,127.087,126.691,131.893,106.529,126.902C70.292,117.933,50.889,113.17,-0.019,112.697C-0.019,112.697,-155.983,138.434,-47.61,-79.325C-37.274,-100.093,-17.374,-144.415,-1.019,-144.415C-1.019,-144.415,23.696,-102.197,23.696,-102.197C23.696,-102.197,71.999,-130.707,71.999,-130.707C90.521,-143.455,108.833,-143.035,125.265,-134.421; M132.53,-11.826C138.896,6.58,159.305,87.824,161.147,106.417C163.196,127.087,126.691,131.893,106.529,126.902C70.292,117.933,50.889,113.17,-0.019,112.697C-0.019,112.697,-155.983,138.434,-47.61,-79.325C-37.274,-100.093,-17.374,-144.415,-1.019,-144.415C-1.019,-144.415,23.696,-102.197,23.696,-102.197C23.696,-102.197,71.999,-130.707,71.999,-130.707C90.521,-143.455,108.833,-143.035,125.265,-134.421" keyTimes="0; 0.142857; 0.194805; 0.25974; 0.337662; 0.428571; 1" keySplines="0 0 1 1; 0 0 1 1; 0 0 1 1; 0 0 1 1; 0 0 1 1; 0 0 1 1" fill="freeze" /></path></g></g></g></g><g transform="matrix(0.83,0,0,0.83,2.057,26.987)" id="i3"><g id="i4" transform="matrix(1,0,0,1,685.846,756.199)"><path d="M12.646,-187.238C-21.131,-95.752,-0.797,80.96,21.131,187.238" stroke-miterlimit="10" stroke-linecap="round" stroke-width="5" stroke="#000000"><animate repeatCount="indefinite" attributeName="d" dur="2.567s" begin="0s" calcMode="spline" values="M12.646,-187.238C-21.131,-95.752,-0.797,80.96,21.131,187.238; M12.646,-187.238C-21.131,-95.752,-0.797,80.96,21.131,187.238; M12.646,-187.238C8.061,-94.738,10.471,78.756,21.131,187.238; M12.646,-187.238C-21.131,-95.752,-0.797,80.96,21.131,187.238; M12.646,-187.238C8.061,-94.738,10.471,78.756,21.131,187.238; M12.646,-187.238C-21.131,-95.752,-0.797,80.96,21.131,187.238; M12.646,-187.238C-21.131,-95.752,-0.797,80.96,21.131,187.238" keyTimes="0; 0.142597; 0.186922; 0.268156; 0.334611; 0.423231; 1" keySplines="0 0 1 1; 0 0 1 1; 0 0 1 1; 0 0 1 1; 0 0 1 1; 0 0 1 1" fill="freeze" /></path></g><g id="i5" transform="matrix(1,0,0,1,591.424,810.794)"><path d="M2.06,-160.308C-9.141,-51.699,9.141,55.657,6.06,160.309" stroke-miterlimit="10" stroke-linecap="round" stroke-width="5" stroke="#000000"><animate repeatCount="indefinite" attributeName="d" dur="2.567s" begin="0s" calcMode="spline" values="M2.06,-160.308C-9.141,-51.699,9.141,55.657,6.06,160.309; M2.06,-160.308C-9.141,-51.699,9.141,55.657,6.06,160.309; M2.06,-160.308C7.302,-54.151,9.141,55.657,6.06,160.309; M2.06,-160.308C-9.141,-51.699,9.141,55.657,6.06,160.309; M2.06,-160.308C7.302,-54.152,9.141,55.657,6.06,160.309; M2.06,-160.308C-9.141,-51.699,9.141,55.657,6.06,160.309; M2.06,-160.308C-9.141,-51.699,9.141,55.657,6.06,160.309" keyTimes="0; 0.142597; 0.186922; 0.268156; 0.334611; 0.423231; 1" keySplines="0 0 1 1; 0 0 1 1; 0 0 1 1; 0 0 1 1; 0 0 1 1; 0 0 1 1" fill="freeze" /></path></g><g id="i6" transform="matrix(1,0,0,1,519.695,753.384)"><path d="M-9.493,-158.357C-28.197,-46.14,6.052,52.786,9.494,158.357" stroke-miterlimit="10" stroke-linecap="round" stroke-width="5" stroke="#000000"><animate repeatCount="indefinite" attributeName="d" dur="2.567s" begin="0s" calcMode="spline" values="M-9.493,-158.357C-28.197,-46.14,6.052,52.786,9.494,158.357; M-9.493,-158.357C-28.197,-46.14,6.052,52.786,9.494,158.357; M-9.493,-158.357C-6.051,-52.786,6.052,52.786,9.494,158.357; M-9.493,-158.357C-28.197,-46.14,6.052,52.786,9.494,158.357; M-9.493,-158.357C-6.051,-52.786,6.052,52.786,9.494,158.357; M-9.493,-158.357C-28.197,-46.14,6.052,52.786,9.494,158.357; M-9.493,-158.357C-28.197,-46.14,6.052,52.786,9.494,158.357" keyTimes="0; 0.142597; 0.186922; 0.268156; 0.334611; 0.423231; 1" keySplines="0 0 1 1; 0 0 1 1; 0 0 1 1; 0 0 1 1; 0 0 1 1; 0 0 1 1" fill="freeze" /></path></g><g id="i7" transform="matrix(1,0,0,1,485.974,1017.073)"><path stroke-miterlimit="10" stroke-linecap="round" stroke-width="5" stroke="#000000" d="M30.393,-26.012C30.393,-26.012,21.269,-17.987,21.269,-17.987C21.269,-17.987,-19.532,0.37,-19.532,0.37C-26.683,3.588,-30.393,11.847,-27.519,19.143C-26.548,21.61,-24.867,24.007,-22.114,26.012" /></g><g id="i8" transform="matrix(1,0,0,1,605.36,1017.685)"><path stroke-miterlimit="10" stroke-linecap="round" stroke-width="5" stroke="#000000" d="M1.577,12.468C1.577,12.468,-1.576,-12.468,-1.576,-12.468" /></g><g id="i9" transform="matrix(1,0,0,1,535.094,1047.055)"><path stroke-miterlimit="10" stroke-linecap="round" stroke-width="5" stroke="#000000" d="M74.051,5C74.051,5,71.843,-16.903,71.843,-16.903C71.843,-16.903,-74.051,-3.715,-74.051,-3.715C-74.051,-3.715,-72.448,10.933,-72.448,10.933C-72.137,14.369,-69.1,16.903,-65.663,16.593C-65.663,16.593,74.051,5,74.051,5Z" /></g><g id="i10" transform="matrix(1,0,0,1,519.21,1005.327)"><path stroke-miterlimit="10" stroke-linecap="round" stroke-width="5" stroke="#000000" d="M-11.967,-6.242C-11.967,-6.242,4.407,6.242,11.968,0.315" /></g><g id="i11" transform="matrix(1,0,0,1,561.487,975.205)"><path stroke-miterlimit="10" stroke-linecap="round" stroke-width="5" stroke="#000000" d="M-30.309,-32.271C-30.309,-11.495,-60.321,-7.144,-58.915,0.168C-55.07,20.164,-13.7,26.514,1.056,28.779C14.757,30.881,35.204,32.271,60.321,27.425" /></g><g id="i12" transform="matrix(1,0,0,1,628.258,1024.055)"><path stroke-miterlimit="10" stroke-linecap="round" stroke-width="5" stroke="#000000" fill="#eef8ff" d="M74.419,-1.574C74.419,-1.574,75.315,23.542,75.315,23.542C75.315,23.542,-68.346,23.542,-68.346,23.542C-70.907,21.297,-72.364,18.76,-73.109,16.217C-75.315,8.692,-70.877,0.798,-63.465,-1.762C-63.465,-1.762,-21.177,-16.372,-21.177,-16.372C-21.177,-16.372,-11.369,-23.542,-11.369,-23.542" /></g><g id="i13" transform="matrix(1,0,0,1,630.328,1057.988)"><path stroke-miterlimit="10" stroke-linecap="round" stroke-width="5" stroke="#000000" fill="#eef8ff" d="M-66.997,10.39C-70.447,10.39,-73.244,7.593,-73.244,4.143C-73.244,4.143,-73.244,-10.39,-73.244,-10.39C-73.244,-10.39,-70.416,-10.39,-70.416,-10.39C-70.416,-10.39,73.244,-10.39,73.244,-10.39C73.244,-10.39,73.244,4.143,73.244,4.143C73.244,7.593,70.447,10.39,66.997,10.39C66.997,10.39,-66.997,10.39,-66.997,10.39Z" /></g><g id="i14" transform="matrix(1,0,0,1,618.704,1014.636)"><path stroke-miterlimit="10" stroke-linecap="round" stroke-width="5" stroke="#000000" fill="#eef8ff" d="M-11.624,-6.953C-11.624,-6.953,3.56,6.953,11.624,1.731" /></g><g id="i1" transform="matrix(1,0,0,1,647.342,989.901)"><path stroke-miterlimit="10" stroke-linecap="round" stroke-width="5" stroke="#000000" fill="#eef8ff" d="M-48.474,-30.191C-53.917,-24.621,-58.521,-17.664,-57.779,-10.254C-55.75,10.007,-15.118,20.055,-0.625,23.639C12.83,26.966,33.069,30.191,58.521,27.626" /></g></g><g id="i15"><g><g transform="translate(497.232,0)"><g transform="translate(0,534.782)"><animateTransform repeatCount="indefinite" type="translate" attributeName="transform" dur="2.567s" begin="0s" calcMode="spline" values="0 534.782; 0 534.782; 0 516.326; 0 493.911; 0 478.676; 0 473.395; 0 482.552; 0 526.197; 0 553.99; 0 505.717; 0 487.412; 0 484.098; 0 489.425; 0 510.008; 0 530.274; 0 536.368; 0 535.041; 0 534.782; 0 534.782; 0 534.782; 0 534.782; 0 534.782; 0 534.782; 0 534.782; 0 534.782; 0 534.782; 0 534.782; 0 534.782; 0 534.782; 0 534.782; 0 534.782; 0 534.782; 0 534.782; 0 534.782; 0 534.782; 0 534.782; 0 534.782; 0 534.782" keyTimes="0; 0.090909; 0.116883; 0.142857; 0.168831; 0.194805; 0.22078; 0.246753; 0.272728; 0.298701; 0.324676; 0.350649; 0.376624; 0.402597; 0.428572; 0.454545; 0.48052; 0.506493; 0.532468; 0.558441; 0.584416; 0.610389; 0.636364; 0.662337; 0.688312; 0.714285; 0.74026; 0.766233; 0.792208; 0.818182; 0.844156; 0.87013; 0.896104; 0.922078; 0.948052; 0.974026; 0.987013; 1" keySplines="0 0 1 1; 0 0 1 1; 0 0 1 1; 0 0 1 1; 0 0 1 1; 0 0 1 1; 0 0 1 1; 0 0 1 1; 0 0 1 1; 0 0 1 1; 0 0 1 1; 0 0 1 1; 0 0 1 1; 0 0 1 1; 0 0 1 1; 0 0 1 1; 0 0 1 1; 0 0 1 1; 0 0 1 1; 0 0 1 1; 0 0 1 1; 0 0 1 1; 0 0 1 1; 0 0 1 1; 0 0 1 1; 0 0 1 1; 0 0 1 1; 0 0 1 1; 0 0 1 1; 0 0 1 1; 0 0 1 1; 0 0 1 1; 0 0 1 1; 0 0 1 1; 0 0 1 1; 0 0 1 1; 0 0 1 1" fill="freeze" /><g transform="rotate(-11)"><animateTransform repeatCount="indefinite" type="rotate" attributeName="transform" dur="2.567s" begin="0s" calcMode="spline" values="-11; -11; 0; -11; 0; -11; -11; -11" keyTimes="0; 0.090909; 0.194299; 0.275532; 0.349389; 0.474922; 0.987013; 1" keySplines="0 0 1 1; 0.167 0 0.667 1; 0.333 0 0.667 1; 0.333 0 0.667 1; 0.333 0 0.667 1; 0.333 0 0.667 1; 0 0 1 1" fill="freeze" /><g transform="scale(0.83,0.83) translate(-572.5,-586.5)"><g id="i9" transform="matrix(1,0,0,1,483.54,552.116)"><path d="M96.352,-34.341C98.29,-13.144,103.138,0.052,106.656,24.809C26.03,33.185,-29.391,34.992,-115.038,40.968C-117.343,13.732,-114.331,-1.931,-118.704,-27.565" stroke-miterlimit="10" stroke-linecap="round" stroke-width="5" stroke="#000000" fill="#ddbc8c"><animate repeatCount="indefinite" attributeName="d" dur="2.567s" begin="0s" calcMode="spline" values="M96.352,-34.341C98.29,-13.144,103.138,0.052,106.656,24.809C26.03,33.185,-29.391,34.992,-115.038,40.968C-117.343,13.732,-114.331,-1.931,-118.704,-27.565; M96.353,-34.341C98.291,-13.144,102.808,2.759,110.216,25.436C29.59,33.812,-24.645,35.828,-110.292,41.803C-112.597,14.567,-114.331,-1.931,-118.704,-27.565; M96.353,-34.341C98.291,-13.144,103.138,0.052,106.656,24.809C26.03,33.185,-29.391,34.993,-115.038,40.968C-117.343,13.732,-114.331,-1.931,-118.704,-27.565; M96.353,-34.341C109.912,-20.628,106.973,-24.811,136.329,-10.87C52.691,-2.851,15.944,-2.248,-68.498,3.481C-100.533,-9.71,-99.317,-13.166,-118.704,-27.565; M96.352,-34.341C98.29,-13.144,103.138,0.052,106.656,24.809C26.03,33.185,-29.391,34.992,-115.038,40.968C-117.343,13.732,-114.331,-1.931,-118.704,-27.565; M96.352,-34.341C98.29,-13.144,103.138,0.052,106.656,24.809C26.03,33.185,-29.391,34.992,-115.038,40.968C-117.343,13.732,-114.331,-1.931,-118.704,-27.565; M96.353,-34.341C109.912,-20.628,106.973,-24.811,136.329,-10.87C52.691,-2.851,15.944,-2.248,-68.498,3.481C-100.533,-9.71,-99.317,-13.166,-118.704,-27.565; M96.352,-34.341C98.29,-13.144,103.138,0.052,106.656,24.809C26.03,33.185,-29.391,34.992,-115.038,40.968C-117.343,13.732,-114.331,-1.931,-118.704,-27.565; M96.352,-34.341C91.988,-14.233,87.837,0.817,83.496,23.989C2.87,32.365,-42.516,33.054,-128.163,39.03C-124.995,12.838,-124.009,-1.699,-118.704,-27.565; M96.352,-34.341C98.29,-13.144,103.138,0.052,106.656,24.809C26.03,33.185,-29.391,34.992,-115.038,40.968C-117.343,13.732,-114.331,-1.931,-118.704,-27.565" keyTimes="0; 0.103896; 0.216442; 0.25974; 0.297675; 0.371532; 0.402597; 0.597403; 0.675325; 1" keySplines="0 0 1 1; 0 0 1 1; 0 0 1 1; 0 0 1 1; 0 0 1 1; 0 0 1 1; 0 0 1 1; 0.167 0.167 0.667 1; 0 0 1 1" fill="freeze" /></path></g><g id="i10" transform="matrix(1,0,0,1,278.586,536.051)"><path d="M81.443,-11.521C75.562,16.719,76.766,29.972,72.476,56.222C23.846,39.096,14.718,29.973,-39.877,9.497C-32.872,-18.823,-34.679,-14.004,-29.331,-40.56" stroke-miterlimit="10" stroke-linecap="round" stroke-width="5" stroke="#000000" fill="#ddbc8c"><animate repeatCount="indefinite" attributeName="d" dur="2.567s" begin="0s" calcMode="spline" values="M81.443,-11.521C75.562,16.719,76.766,29.972,72.476,56.222C23.846,39.096,14.718,29.973,-39.877,9.497C-32.872,-18.823,-34.679,-14.004,-29.331,-40.56; M81.443,-11.521C75.562,16.719,76.766,29.972,72.476,56.222C23.846,39.096,14.718,29.972,-39.877,9.497C-32.872,-18.823,-34.679,-14.004,-29.331,-40.56; M81.443,-11.521C55.669,-15.62,50.298,-12.889,31.961,-12.457C-16.669,-29.583,-23.437,-29.824,-76.764,-40.908C-51.86,-44.198,-53.312,-35.891,-29.331,-40.56; M81.443,-11.521C75.562,16.719,76.766,29.972,72.476,56.222C23.846,39.096,14.718,29.973,-39.877,9.497C-32.872,-18.823,-34.679,-14.004,-29.331,-40.56; M81.443,-11.521C75.562,16.719,76.766,29.972,72.476,56.222C23.846,39.096,14.718,29.973,-39.877,9.497C-32.872,-18.823,-34.679,-14.004,-29.331,-40.56; M81.443,-11.521C55.669,-15.62,50.298,-12.889,31.961,-12.457C-16.669,-29.583,-23.437,-29.825,-76.764,-40.909C-51.86,-44.199,-53.312,-35.891,-29.331,-40.56; M81.443,-11.521C75.562,16.719,76.766,29.972,72.476,56.222C23.846,39.096,14.718,29.973,-39.877,9.497C-32.872,-18.823,-34.679,-14.004,-29.331,-40.56; M81.443,-11.521C75.562,16.719,73.689,29.584,68.394,55.122C19.764,37.996,14.718,29.973,-39.877,9.497C-32.872,-18.823,-34.679,-14.004,-29.331,-40.56; M81.443,-11.521C75.562,16.719,76.766,29.972,72.476,56.222C23.846,39.096,14.718,29.973,-39.877,9.497C-32.872,-18.823,-34.679,-14.004,-29.331,-40.56" keyTimes="0; 0.223831; 0.25974; 0.297675; 0.371532; 0.402597; 0.597403; 0.805195; 1" keySplines="0 0 1 1; 0 0 1 1; 0 0 1 1; 0 0 1 1; 0 0 1 1; 0 0 1 1; 0.167 0.167 0.667 1; 0 0 1 1" fill="freeze" /></path></g><g id="i11" transform="matrix(1,0,0,1,419.236,430.43)"><path stroke-miterlimit="10" stroke-linecap="round" stroke-width="5" stroke="#000000" fill="#ddbc8c" d="M-15.044,-99.102C49.659,-83.102,96.32,-90.894,169.981,-81.65C155.906,-27.889,151.082,16.786,161.058,90.364C93.45,102.303,9.391,96.907,-59.207,94.101C-102.195,82.337,-126.993,76.826,-169.981,65.062C-162.407,1.083,-161.343,-57.053,-167.562,-99.102C-123.763,-102.302,-58.843,-95.902,-15.044,-99.102Z" /></g><g id="i12" transform="matrix(1,0,0,1,308.254,427.051)"><path stroke-miterlimit="10" stroke-linecap="round" stroke-width="5" stroke="#000000" fill="#ddbc8c" d="M-56.581,-95.724C-14.921,-86.639,17.612,-78.465,56.581,-72.475C54.76,-9.607,54.133,32.857,52.313,95.724" /></g><g id="i13" transform="matrix(1,0,0,1,477.19,351.902)"><path stroke-miterlimit="10" stroke-linecap="round" stroke-width="5" stroke="#000000" d="M-112.026,3.123C-42.033,2.109,42.034,-2.109,112.026,-3.123" /></g><g id="i14" transform="matrix(1,0,0,1,306.142,427.058)"><path stroke-miterlimit="10" stroke-linecap="round" stroke-width="5" stroke="#000000" d="M0.841,-83.44C0.841,-83.44,2.61,83.441,-2.611,82.013" /></g><g id="i1" transform="matrix(1,0,0,1,307.842,426.297)"><path stroke-miterlimit="10" stroke-linecap="round" stroke-width="5" stroke="#000000" fill="#ffffff" d="M2.264,43.63C2.264,43.63,-8.285,42.896,-8.285,42.896C-2.491,2.491,-2.262,-43.63,-2.262,-43.63C-2.262,-43.63,8.286,-42.896,8.286,-42.896C8.286,-42.896,6.609,2.712,2.264,43.63Z" /></g></g></g></g></g></g></g><g id="i15"><g><g transform="translate(497.232,0)"><g transform="translate(0,534.782)"><animateTransform repeatCount="indefinite" type="translate" attributeName="transform" dur="2.567s" begin="0s" calcMode="spline" values="0 534.782; 0 534.782; 0 516.326; 0 493.911; 0 478.676; 0 473.395; 0 482.552; 0 526.197; 0 553.99; 0 505.717; 0 487.412; 0 484.098; 0 489.425; 0 510.008; 0 530.274; 0 536.368; 0 535.041; 0 534.782; 0 534.782; 0 534.782; 0 534.782; 0 534.782; 0 534.782; 0 534.782; 0 534.782; 0 534.782; 0 534.782; 0 534.782; 0 534.782; 0 534.782; 0 534.782; 0 534.782; 0 534.782; 0 534.782; 0 534.782; 0 534.782; 0 534.782; 0 534.782" keyTimes="0; 0.090909; 0.116883; 0.142857; 0.168831; 0.194805; 0.22078; 0.246753; 0.272728; 0.298701; 0.324676; 0.350649; 0.376624; 0.402597; 0.428572; 0.454545; 0.48052; 0.506493; 0.532468; 0.558441; 0.584416; 0.610389; 0.636364; 0.662337; 0.688312; 0.714285; 0.74026; 0.766233; 0.792208; 0.818182; 0.844156; 0.87013; 0.896104; 0.922078; 0.948052; 0.974026; 0.987013; 1" keySplines="0 0 1 1; 0 0 1 1; 0 0 1 1; 0 0 1 1; 0 0 1 1; 0 0 1 1; 0 0 1 1; 0 0 1 1; 0 0 1 1; 0 0 1 1; 0 0 1 1; 0 0 1 1; 0 0 1 1; 0 0 1 1; 0 0 1 1; 0 0 1 1; 0 0 1 1; 0 0 1 1; 0 0 1 1; 0 0 1 1; 0 0 1 1; 0 0 1 1; 0 0 1 1; 0 0 1 1; 0 0 1 1; 0 0 1 1; 0 0 1 1; 0 0 1 1; 0 0 1 1; 0 0 1 1; 0 0 1 1; 0 0 1 1; 0 0 1 1; 0 0 1 1; 0 0 1 1; 0 0 1 1; 0 0 1 1" fill="freeze" /><g transform="rotate(-11)"><animateTransform repeatCount="indefinite" type="rotate" attributeName="transform" dur="2.567s" begin="0s" calcMode="spline" values="-11; -11; 0; -11; 0; -11; -11; -11" keyTimes="0; 0.090909; 0.194299; 0.275532; 0.349389; 0.474922; 0.987013; 1" keySplines="0 0 1 1; 0.167 0 0.667 1; 0.333 0 0.667 1; 0.333 0 0.667 1; 0.333 0 0.667 1; 0.333 0 0.667 1; 0 0 1 1" fill="freeze" /><g transform="scale(0.83,0.83) translate(-572.5,-586.5)"><g id="i16"><g transform="translate(506.439,444.242)"><g transform="rotate(-18)"><animateTransform repeatCount="indefinite" type="rotate" attributeName="transform" dur="2.567s" begin="0s" calcMode="spline" values="-18; -18; 0; -18; 0; -18; -18; -18" keyTimes="0; 0.090909; 0.179532; 0.272727; 0.350649; 0.48052; 0.701299; 1" keySplines="0 0 1 1; 0.333 0 0.667 1; 0.333 0 0.667 1; 0.333 0 0.667 1; 0.333 0 0.667 1; 0.333 0 0.667 1; 0 0 1 1" fill="freeze" /><g transform="scale(1,1) translate(-534.439,-398.222)"><g id="i9" transform="matrix(1,0,0,1,717.313,386.909)"><path d="M63.279,-99.083C140.729,-33.355,69.196,90.923,-7.091,82.071C-24.338,80.07,-48.309,74.336,-65.557,72.343" stroke-miterlimit="10" stroke-linecap="round" stroke-width="5" stroke="#000000" fill="#326690"><animate repeatCount="indefinite" attributeName="d" dur="2.567s" begin="0s" calcMode="spline" values="M63.279,-99.083C140.729,-33.355,69.196,90.923,-7.091,82.071C-24.338,80.07,-48.309,74.336,-65.557,72.343; M63.279,-99.083C140.729,-33.355,69.196,90.923,-7.091,82.071C-24.338,80.07,-48.309,74.336,-65.557,72.343; M-26.996,-99.139C56.043,-73.076,65.557,92.606,-19.347,87.726C-36.681,86.729,-48.309,74.336,-65.557,72.343; M63.279,-99.083C140.729,-33.355,69.196,90.923,-7.091,82.071C-24.338,80.07,-48.309,74.336,-65.557,72.343; M-46.273,-107.574C41.958,-100.755,65.557,92.606,-19.347,87.726C-36.681,86.729,-48.309,74.336,-65.557,72.343; M63.279,-99.083C140.729,-33.355,69.196,90.923,-7.091,82.071C-24.338,80.07,-48.309,74.336,-65.557,72.343; M63.279,-99.083C140.729,-33.355,69.196,90.923,-7.091,82.071C-24.338,80.07,-48.309,74.336,-65.557,72.343; M63.279,-99.083C140.729,-33.355,69.196,90.923,-7.091,82.071C-24.338,80.07,-48.309,74.336,-65.557,72.343" keyTimes="0; 0.090909; 0.181818; 0.272727; 0.350649; 0.48052; 0.701299; 1" keySplines="0 0 1 1; 0.333 0 0.833 1; 0.167 0 0.833 1; 0.333 0 0.833 1; 0.167 0 0.833 1; 0.333 0 0.833 1; 0 0 1 1" fill="freeze" /></path></g><g id="i10" transform="matrix(1,0,0,1,606.252,424.28)"><path stroke-miterlimit="10" stroke-linecap="round" stroke-width="5" stroke="#000000" fill="#000000" d="M-16.19,-29.242C-15.619,-38.724,-2.281,-43.23,5.695,-38.07C13.67,-32.909,16.19,-22.095,14.797,-12.698C13.404,-3.302,8.922,5.304,5.668,14.229C2.414,23.154,0.412,33.229,1.461,43.23C-1.521,32.201,-5.502,15.172,-8.484,4.143" /></g><g id="i11" transform="matrix(1,0,0,1,554.414,404.877)"><path stroke-miterlimit="10" stroke-linecap="round" stroke-width="5" stroke="#000000" fill="#eef8ff" d="M55.805,-7.473C55.805,-7.473,11.559,-17.777,11.559,-17.777C11.559,-17.777,-4.366,-29.569,-4.366,-29.569C-9.365,-33.27,-16.451,-29.727,-16.488,-23.507C-16.488,-23.507,-47.911,-37.771,-52.904,-14.08C-56.886,4.812,-33.007,37.771,1.026,8.632C1.026,8.632,56.886,25.512,56.886,25.512" /></g><g id="i12" transform="matrix(1,0,0,1,617.497,415.331)"><path stroke-miterlimit="10" stroke-linecap="square" stroke-width="5" stroke="#000000" fill="#e1ebff" d="M-19.251,-20.715C-19.251,-20.715,19.252,-11.749,19.252,-11.749C19.252,-11.749,12.525,20.715,12.525,20.715C12.525,20.715,-9.779,13.975,-9.779,13.975" /></g><g id="i13" transform="matrix(1,0,0,1,635.71,439.352)"><path stroke-miterlimit="10" stroke-linecap="round" stroke-width="5" stroke="#000000" fill="#326690" d="M-34.042,-55.116C-30.499,-55.652,-26.754,-55.077,-23.763,-53.142C-15.787,-47.982,-13.268,-37.167,-14.661,-27.77C-16.053,-18.373,-20.536,-9.768,-23.79,-0.843C-27.043,8.082,-29.046,18.157,-27.997,28.159C-27.997,28.159,-28.105,26.975,-28.105,26.975C-27.687,37.533,-4.29,45.054,6.752,55.652C13.97,19.922,34.043,-18.987,14.035,-54.499" /></g><g id="i14" transform="matrix(1,0,0,1,636.453,358.075)"><path d="M-38.207,26.791C-12.919,19.393,15.561,30.099,38.078,30.823C74.176,34.041,76.725,31.053,87.513,-6.807" stroke-miterlimit="10" stroke-linecap="round" stroke-width="5" stroke="#000000"><animate repeatCount="indefinite" attributeName="d" dur="2.567s" begin="0s" calcMode="spline" values="M-38.207,26.791C-12.919,19.393,15.561,30.099,38.078,30.823C74.176,34.041,76.725,31.053,87.513,-6.807; M-38.207,26.791C-12.919,19.393,15.561,30.099,38.078,30.823C74.176,34.041,76.725,31.053,87.513,-6.807; M-38.207,26.791C-12.919,19.393,15.319,22.708,38.207,35.761C20.904,7.313,18.337,0.078,21.086,-17.93; M-38.207,26.791C-12.919,19.393,15.561,30.099,38.078,30.823C74.176,34.041,76.725,31.053,87.513,-6.807; M-38.207,26.791C-12.919,19.393,15.319,22.708,38.207,35.761C20.904,7.313,18.337,0.078,21.086,-17.93; M-38.207,26.791C-12.919,19.393,15.561,30.099,38.078,30.823C74.176,34.041,76.725,31.053,87.513,-6.807; M-38.207,26.791C-12.919,19.393,15.561,30.099,38.078,30.823C74.176,34.041,76.725,31.053,87.513,-6.807; M-38.207,26.791C-12.919,19.393,15.561,30.099,38.078,30.823C74.176,34.041,76.725,31.053,87.513,-6.807" keyTimes="0; 0.090909; 0.181818; 0.272727; 0.352935; 0.48052; 0.701299; 1" keySplines="0 0 1 1; 0.167 0 0.833 1; 0.167 0 0.833 1; 0.167 0 0.833 1; 0.167 0 0.833 1; 0.167 0 0.833 1; 0 0 1 1" fill="freeze" /></path></g><g id="i1" transform="matrix(1,0,0,1,632.081,461.246)"><path stroke-miterlimit="10" stroke-linecap="round" stroke-width="5" stroke="#000000" d="M6.169,0C6.169,3.407,3.407,6.169,0,6.169C-3.407,6.169,-6.168,3.407,-6.168,0C-6.168,-3.407,-3.407,-6.169,0,-6.169C3.407,-6.169,6.169,-3.407,6.169,0Z" /></g></g></g></g></g></g></g></g></g></g></g><g id="i17"><g transform="translate(504.173,279.4)"><g transform="rotate(0)"><animateTransform repeatCount="indefinite" type="rotate" attributeName="transform" dur="2.567s" begin="0s" calcMode="spline" values="0; 0; -5; -5; 0; 0" keyTimes="0; 0.116883; 0.584416; 0.649351; 0.974026; 1" keySplines="0 0 1 1; 0.333 0 0.667 1; 0 0 1 1; 0.333 0 0.667 1; 0 0 1 1" fill="freeze" /><g transform="scale(0.83,0.83) translate(-615.874,-302.163)"><g id="i5" transform="matrix(1,0,0,1,692.302,244.019)"><path d="M-67.624,-74.46C-60.323,-66.626,-59.432,-64.406,-60.836,-50.411C-63.241,-26.447,-62.772,-11.378,-55.453,11.567C-48.133,34.511,-32.257,55.667,-9.899,64.62C12.459,73.573,41.224,67.645,54.789,47.744C68.354,27.844,60.596,-4.45,37.918,-12.56C13.687,-21.225,1.633,-43.886,2.322,-69.611C2.477,-75.401,-1.991,-80.972,-7.677,-82.077C-13.363,-83.183,-67.624,-74.46,-67.624,-74.46Z" stroke-miterlimit="10" stroke-linecap="round" stroke-width="5" stroke="#000000" fill="#151214"><animate repeatCount="indefinite" attributeName="d" dur="2.567s" begin="0s" calcMode="spline" values="M-67.624,-74.46C-60.323,-66.626,-59.432,-64.406,-60.836,-50.411C-63.241,-26.447,-62.772,-11.378,-55.453,11.567C-48.133,34.511,-32.257,55.667,-9.899,64.62C12.459,73.573,41.224,67.645,54.789,47.744C68.354,27.844,60.596,-4.45,37.918,-12.56C13.687,-21.225,1.633,-43.886,2.322,-69.611C2.477,-75.401,-1.991,-80.972,-7.677,-82.077C-13.363,-83.183,-67.624,-74.46,-67.624,-74.46Z; M-67.624,-74.46C-60.323,-66.626,-59.432,-64.406,-60.836,-50.411C-63.241,-26.447,-62.772,-11.378,-55.453,11.567C-48.133,34.511,-32.257,55.667,-9.899,64.62C12.459,73.573,41.224,67.645,54.789,47.744C68.354,27.844,60.596,-4.45,37.918,-12.56C13.687,-21.225,1.633,-43.886,2.322,-69.611C2.477,-75.401,-1.991,-80.972,-7.677,-82.077C-13.363,-83.183,-67.624,-74.46,-67.624,-74.46Z; M-67.624,-74.46C-60.323,-66.626,-59.432,-64.406,-60.836,-50.411C-63.241,-26.447,-63.501,-1.767,-56.182,21.178C-48.862,44.122,-32.986,65.277,-10.628,74.23C11.73,83.183,40.495,77.256,54.06,57.355C67.625,37.455,59.867,5.161,37.189,-2.949C12.958,-11.614,1.633,-43.886,2.322,-69.611C2.477,-75.401,-1.991,-80.972,-7.677,-82.077C-13.363,-83.183,-67.624,-74.46,-67.624,-74.46Z; M-67.624,-74.46C-60.323,-66.626,-59.432,-64.406,-60.836,-50.411C-63.241,-26.447,-62.772,-11.378,-55.453,11.567C-48.133,34.511,-32.257,55.667,-9.899,64.62C12.459,73.573,41.224,67.645,54.789,47.744C68.354,27.844,60.596,-4.45,37.918,-12.56C13.687,-21.225,1.633,-43.886,2.322,-69.611C2.477,-75.401,-1.991,-80.972,-7.677,-82.077C-13.363,-83.183,-67.624,-74.46,-67.624,-74.46Z; M-67.624,-74.46C-60.323,-66.626,-59.432,-64.406,-60.836,-50.411C-63.241,-26.447,-62.772,-11.378,-55.453,11.567C-48.133,34.511,-32.257,55.667,-9.899,64.62C12.459,73.573,41.224,67.645,54.789,47.744C68.354,27.844,60.596,-4.45,37.918,-12.56C13.687,-21.225,1.633,-43.886,2.322,-69.611C2.477,-75.401,-1.991,-80.972,-7.677,-82.077C-13.363,-83.183,-67.624,-74.46,-67.624,-74.46Z" keyTimes="0; 0.051948; 0.441558; 0.961039; 1" keySplines="0 0 1 1; 0 0 1 1; 0 0 1 1; 0 0 1 1" fill="freeze" /></path></g><g id="i6" transform="matrix(1,0,0,1,594.411,259.908)"><path stroke-miterlimit="10" stroke-linecap="round" stroke-width="5" stroke="#000000" d="M5.451,-19.487C4.527,-6.495,0.64,12.19,-5.451,19.487" /></g><g id="i7" transform="matrix(1,0,0,1,602.33,214.252)"><path stroke-miterlimit="10" stroke-linecap="round" stroke-width="5" stroke="#000000" d="M-36.33,-25.893C-33.596,-12.952,-33.935,-14.556,-31.201,-1.615C-27.971,13.673,-13.227,25.703,2.397,25.799C18.022,25.894,32.913,14.046,36.33,-1.201" /></g><g id="i8" transform="matrix(1,0,0,1,601.526,145.512)"><path stroke-miterlimit="10" stroke-linecap="round" stroke-width="5" stroke="#000000" fill="#326690" d="M-72.745,16.895C-72.745,16.895,-29.706,4.359,-29.706,4.359C-25.888,-23.289,2.359,-45.148,30.081,-41.908C57.803,-38.668,80.248,-10.884,77.588,16.899C14.374,35.27,-19.216,34.159,-38.763,28.917C-60.013,23.218,-64.667,12.637,-72.745,16.895C-78.745,20.058,-80.248,28.744,-76.924,34.656C-73.601,40.568,-66.74,43.793,-59.992,44.47C-53.244,45.148,-42.394,43.144,-35.774,41.668C-35.774,41.668,-38.763,28.917,-38.763,28.917" /></g><g id="i9" transform="matrix(1,0,0,1,543.515,174.404)"><path stroke-miterlimit="10" stroke-linecap="round" stroke-width="5" stroke="#000000" fill="#000000" d="M22.043,0.722C21.08,0.499,20.149,0.266,19.248,0.025C-2.002,-5.674,-6.656,-16.256,-14.734,-11.997C-20.734,-8.834,-22.237,-0.149,-18.914,5.764C-15.59,11.676,-8.729,14.901,-1.981,15.578C4.767,16.256,15.617,14.252,22.237,12.775C22.237,12.775,19.248,0.025,19.248,0.025" /></g><g id="i10" transform="matrix(1,0,0,1,582.244,200.369)"><path stroke-miterlimit="10" stroke-linecap="round" stroke-width="5" stroke="#000000" fill="#000000" d="M-6.716,-2.008C-6.716,-2.008,0.932,2.008,6.716,-0.328" /></g><g id="i11" transform="matrix(1,0,0,1,605.021,201.209)"><path stroke-miterlimit="10" stroke-linecap="round" stroke-width="5" stroke="#000000" fill="#000000" d="M-6.716,-0.848C-6.716,-0.848,0.932,1.168,6.716,-1.168" /></g><g id="i12" transform="matrix(1,0,0,1,602.895,136.398)"><path fill="#ffffff" d="M2.104,-7.117C0.232,-7.466,-1.301,-7.294,-2.682,-5.892C-3.714,-4.845,-4.465,-3.311,-3.188,-2.149C-1.426,-0.547,2.381,-0.792,2.92,2.141C3.258,3.98,1.078,4.202,-0.213,3.831C-1.634,3.422,-2.576,2.357,-3.175,1.063C-3.387,0.605,-5.693,2.328,-5.296,3.185C-3.314,7.466,2.222,6.802,4.569,3.198C5.693,1.471,5.319,-0.513,3.753,-1.848C2.905,-2.571,1.815,-2.954,0.801,-3.374C0.418,-3.532,-1.187,-3.911,-1.262,-4.469C-1.38,-5.344,-0.495,-5.009,0.261,-4.868C1.081,-4.716,2.801,-6.987,2.104,-7.117Z" /></g><g id="i13" transform="matrix(1,0,0,1,594.189,130.405)"><path fill="#ffffff" d="M2.569,-1.01C2.569,-1.01,-0.487,-1.01,-0.487,-1.01C-0.719,-1.01,-0.978,-0.857,-1.165,-0.745C-1.488,-0.551,-1.81,-0.297,-2.076,-0.032C-2.282,0.174,-2.538,0.407,-2.647,0.682C-2.689,0.785,-2.773,1.01,-2.57,1.01C-2.57,1.01,0.486,1.01,0.486,1.01C0.718,1.01,0.977,0.858,1.165,0.745C1.487,0.552,1.809,0.297,2.075,0.032C2.281,-0.174,2.537,-0.408,2.647,-0.682C2.688,-0.786,2.772,-1.01,2.569,-1.01Z" /></g><g id="i14" transform="matrix(1,0,0,1,589.932,134.862)"><path fill="#ffffff" d="M4.643,-1.01C4.643,-1.01,-2.561,-1.01,-2.561,-1.01C-3.132,-1.01,-3.772,-0.408,-4.149,-0.032C-4.235,0.053,-5.084,1.01,-4.643,1.01C-4.643,1.01,2.56,1.01,2.56,1.01C3.132,1.01,3.772,0.408,4.149,0.032C4.234,-0.053,5.084,-1.01,4.643,-1.01Z" /></g><g id="i1" transform="matrix(1,0,0,1,592.024,140.01)"><path fill="#ffffff" d="M3.115,-1.01C3.115,-1.01,-1.033,-1.01,-1.033,-1.01C-1.264,-1.01,-1.523,-0.857,-1.711,-0.745C-2.033,-0.551,-2.355,-0.297,-2.621,-0.032C-2.827,0.174,-3.083,0.407,-3.193,0.682C-3.234,0.785,-3.318,1.01,-3.115,1.01C-3.115,1.01,1.032,1.01,1.032,1.01C1.264,1.01,1.523,0.858,1.711,0.745C2.033,0.551,2.355,0.297,2.621,0.031C2.827,-0.174,3.083,-0.408,3.193,-0.682C3.234,-0.786,3.318,-1.01,3.115,-1.01Z" /></g></g></g></g></g><g transform="matrix(1,0,0,1,500,500)" visibility="hidden" id="i18"><animate repeatCount="indefinite" begin="0s" calcMode="discrete" dur="2.567s" values="hidden; visible; visible" keyTimes="0; 0.286037; 1" attributeName="visibility" /><g id="i19"><path stroke-width="2" stroke="#000000" d="M-142,44C-142,44,-98,110,-139,140C-169.454,162.283,-318,28,-352,106C-386,184,-207.607,328.098,-171,308C-120,280,-164,184,-204,227C-265.995,293.645,-384,353,-313,168C-242.43,-15.88,-387,39,-413,67" /></g></g><g transform="matrix(1,0,0,1,480,506)" visibility="hidden" id="i20"><animate repeatCount="indefinite" begin="0s" calcMode="discrete" dur="2.567s" values="hidden; visible; visible" keyTimes="0; 0.286037; 1" attributeName="visibility" /><g id="i19"><path stroke-width="2" stroke="#000000" d="M-142,44C-142,44,-98,110,-139,140C-169.454,162.283,-318,28,-352,106C-386,184,-207.607,328.098,-171,308C-120,280,-164,184,-204,227C-265.995,293.645,-384,353,-313,168C-242.43,-15.88,-387,39,-413,67" /></g></g></svg>